PathFileType	4	(X/Y/Z)	C:\Users\u0145647\OneDrive - KU Leuven\KU Leuven\c3d2osim\CP4\T0\Data\Processed\ViconC3D_CP4_2\CP4_T0_07_gapFilled.trc
DataRate	CameraRate	NumFrames	NumMarkers	Units	OrigDataRate	OrigDataStartFrame	OrigNumFrames
100.000000	100.000000	5	47	mm	100.000000	92	728
Frame#	Time	C7			T10			CLAV			STRN			LSHO			RSHO			RBAK			LASI			RASI			LPSI			RPSI			LLAT			RLAT			LF1			LF2			LF3			LTHI			LKNE			LMEK			RF1			RF2			RF3			RTHI			RKNE			RMEK			LT1			LT2			LT3			LTIB			LANK			LMM			RT1			RT2			RT3			RTIB			RANK			RMM			LHEE			LSTL			LLCA			LTOE			LCM5			RHEE			RSTL			RLCA			RTOE			RCM5
		X1	Y1	Z1	X2	Y2	Z2	X3	Y3	Z3	X4	Y4	Z4	X5	Y5	Z5	X6	Y6	Z6	X7	Y7	Z7	X8	Y8	Z8	X9	Y9	Z9	X10	Y10	Z10	X11	Y11	Z11	X12	Y12	Z12	X13	Y13	Z13	X14	Y14	Z14	X15	Y15	Z15	X16	Y16	Z16	X17	Y17	Z17	X18	Y18	Z18	X19	Y19	Z19	X20	Y20	Z20	X21	Y21	Z21	X22	Y22	Z22	X23	Y23	Z23	X24	Y24	Z24	X25	Y25	Z25	X26	Y26	Z26	X27	Y27	Z27	X28	Y28	Z28	X29	Y29	Z29	X30	Y30	Z30	X31	Y31	Z31	X32	Y32	Z32	X33	Y33	Z33	X34	Y34	Z34	X35	Y35	Z35	X36	Y36	Z36	X37	Y37	Z37	X38	Y38	Z38	X39	Y39	Z39	X40	Y40	Z40	X41	Y41	Z41	X42	Y42	Z42	X43	Y43	Z43	X44	Y44	Z44	X45	Y45	Z45	X46	Y46	Z46	X47	Y47	Z47

92	0.91	-2276.9	1415.3	-162.37	-2316	1155	-200.24	NaN	NaN	NaN	NaN	NaN	NaN	-2233	1378.1	-383.13	-2221.5	1350.8	25.933	-2313.5	1324.4	-40.762	NaN	NaN	NaN	NaN	NaN	NaN	-2308.6	940.21	-256.94	-2331.2	951.51	-186.58	-2172.1	963.58	-332.68	-2255.1	970.57	-45.969	-2065.2	677.24	-341.61	-2100.2	709.19	-347.57	-2092.6	656.92	-352.02	NaN	NaN	NaN	-1980	491.44	-307.12	NaN	NaN	NaN	NaN	NaN	NaN	-2263.3	652.03	-48.471	-2322.4	659.19	-60.338	-2291.1	556.19	-23.968	-2273	434.38	-103.64	NaN	NaN	NaN	-2027.1	318.18	-338.35	-1984.4	356.43	-316.84	-2032.6	362.7	-335.22	-1966.5	249	-350.62	-2050.3	80.257	-319.43	-2041.9	88.426	-231.4	-2350.8	305.32	-84.169	-2311.1	333.76	-101.31	-2354.3	355.64	-83.105	-2358.3	229.66	-47.039	-2455.2	53.458	-108.45	-2445.8	93.681	-191.38	-2102	59.656	-275.59	-2042.9	58.325	-235.58	-2045.6	52.915	-314.3	-1928.3	50.012	-270.72	-1933.6	41.573	-315.48	-2507.8	87.419	-142.55	-2456.5	58.328	-187.31	-2455.2	79.053	-104.72	-2337.7	33.53	-145.33	-2362.4	18.713	-90.821
93	0.92	-2268.6	1414.8	-163.11	-2307.6	1154.5	-200.9	NaN	NaN	NaN	NaN	NaN	NaN	-2223	1377.3	-383.58	-2214.8	1350.4	25.686	-2306.3	1324.1	-41.863	NaN	NaN	NaN	NaN	NaN	NaN	-2299.9	939.86	-257	-2323	951.27	-186.81	-2162.6	962.84	-331.97	-2248	970.35	-45.723	-2056.4	677.47	-341.33	-2091.3	709.24	-347.24	-2083.8	657.12	-352.02	NaN	NaN	NaN	-1970	492.36	-306.09	NaN	NaN	NaN	NaN	NaN	NaN	-2257.4	651.69	-48.345	-2316.4	659.05	-60.234	-2285.6	556.02	-23.663	-2269	434.18	-102.98	NaN	NaN	NaN	-2010.3	317.07	-336.22	-1969.3	357.48	-315.3	-2017.8	361.42	-333.41	-1947.2	251.18	-349.26	-2021.4	78.026	-315.32	-2013.6	87.557	-227.65	-2346	303.33	-86.053	-2307.6	333.56	-101.09	-2350.6	355.9	-82.833	-2355.9	229.98	-46.842	-2454.9	54.554	-108.48	-2444.7	94.775	-191.14	-2072.4	56.01	-271.62	-2013	57.199	-231.78	-2015	50.622	-309.33	-1898.4	52.893	-267.43	-1903.4	44.127	-312.34	-2506.9	89.364	-142.38	-2455.9	59.718	-187.11	-2454.4	80.335	-104.56	-2337.4	33.552	-145.3	-2362.2	18.82	-90.853
94	0.93	-2260.1	1414.2	-164	-2299	1153.9	-201.7	NaN	NaN	NaN	NaN	NaN	NaN	-2212.6	1376.4	-384.08	-2208.2	1350	25.29	-2299.1	1323.8	-43.078	NaN	NaN	NaN	NaN	NaN	NaN	-2291.2	939.55	-257.08	-2314.7	950.98	-187.05	-2153.2	962.06	-331.22	-2240.7	970.01	-45.512	-2047.6	677.34	-340.78	-2082.2	709.1	-346.79	-2074.8	657.08	-351.86	NaN	NaN	NaN	-1960.5	493	-305.32	NaN	NaN	NaN	NaN	NaN	NaN	-2251.1	650.92	-48.56	-2310.4	658.91	-60.13	-2280	555.76	-23.304	-2264.2	433.27	-102.95	NaN	NaN	NaN	-1993.9	315.91	-334.19	-1954.8	358.45	-313.99	-2003.5	359.86	-331.47	-1927.6	252.68	-347.5	-1993.9	77.053	-311.85	-1985.7	87.042	-224.03	-2344.7	306.02	-83.736	-2304.1	333.36	-100.88	-2346.8	356.08	-82.669	-2353.5	230.36	-46.648	-2454.2	55.973	-108.36	-2444.5	96.834	-191.35	-2043.5	53.143	-267.57	-1984.6	57.024	-227.98	-1986.2	49.962	-305.83	-1869.4	55.561	-264.33	-1874.5	47.022	-309.34	-2505.9	91.253	-142.24	-2455.1	61.034	-186.92	-2453.3	81.503	-104.25	-2337.2	33.61	-145.27	-2362	18.939	-90.872
95	0.94	-2251.6	1413.6	-165.04	-2290.3	1153.3	-202.56	NaN	NaN	NaN	NaN	NaN	NaN	-2202	1375.4	-384.66	-2201.5	1349.6	24.885	-2291.8	1323.4	-44.436	NaN	NaN	NaN	NaN	NaN	NaN	-2282.4	939.1	-257.18	-2306.2	950.58	-187.31	-2143.6	961.25	-330.56	-2233.3	969.58	-45.37	-2038.7	676.99	-340.1	-2073.4	708.97	-346.37	-2066.2	657.02	-351.64	NaN	NaN	NaN	-1951.5	493.25	-304.63	NaN	NaN	NaN	NaN	NaN	NaN	-2244.9	650.4	-48.444	-2304.3	658.7	-60.039	-2274.4	555.52	-23.008	-2260.1	433.26	-102.34	NaN	NaN	NaN	-1977.9	314.66	-332.17	-1941.8	359.9	-314.01	-1989.5	358.19	-329.8	-1909	254.28	-345.72	-1967.1	76.485	-308.33	-1958.9	87.145	-220.52	-2341.2	305.92	-83.653	-2300.7	333.27	-100.54	-2343.2	356.49	-82.337	-2351.1	230.69	-46.414	-2453.6	57.259	-108.16	-2443.5	98.13	-191.25	-2015.6	50.907	-263.6	-1956.2	56.849	-224.17	-1958.5	49.565	-302.22	-1841.6	58.75	-261.39	-1846.6	49.931	-306.38	-2504.9	93.153	-142.05	-2454.5	62.465	-186.69	-2452.5	82.885	-104.1	-2336.9	33.644	-145.24	-2361.8	19.082	-90.898
96	0.95	-2242.9	1413	-166.11	-2281.4	1152.7	-203.52	NaN	NaN	NaN	NaN	NaN	NaN	-2191.1	1374.3	-385.29	-2194.7	1349.2	24.322	-2284.3	1323	-45.912	NaN	NaN	NaN	NaN	NaN	NaN	-2273.3	938.48	-257.29	-2297.7	950.07	-187.59	-2134	960.45	-329.92	-2225.8	969.05	-45.278	-2029.8	676.43	-339.27	-2064.5	708.67	-345.8	-2057.2	656.43	-351.18	NaN	NaN	NaN	-1942.6	492.93	-303.79	NaN	NaN	NaN	-2264.9	622.03	-53.798	-2238.8	649.85	-48.323	-2297.9	658.4	-59.982	-2268.7	555.2	-22.731	-2255.6	432.79	-101.93	NaN	NaN	NaN	-1962.3	313.35	-330.35	-1928.1	360.28	-312.51	-1975.7	356.36	-328.19	-1891.3	255.92	-343.96	-1941.9	75.891	-304.63	-1933.6	87.428	-217.04	-2337.9	306.01	-83.505	-2297.1	332.99	-100.32	-2339.3	356.62	-82.229	-2348.7	231.01	-46.21	-2453	58.725	-107.98	-2442.4	99.463	-190.98	-1989.2	49.182	-259.64	-1929.6	57.386	-220.6	-1932.2	49.431	-298.45	-1815.1	62.065	-258.47	-1820.5	53.57	-303.64	-2503.9	95.167	-141.91	-2453.8	64.027	-186.63	-2451.7	84.229	-103.85	-2336.5	33.68	-145.22	-2361.6	19.196	-90.961
